<svg width="447" height="467" viewBox="0 0 447 467" fill="none" xmlns="http://www.w3.org/2000/svg">
<mask id="path-1-inside-1_39_104" fill="white">
<path d="M200 179C203.218 202.983 208.839 214.27 224 231.5L280.5 175.5L337 235L281.5 289.5L337 345L447 235L337 123.5C315.513 103.957 302.515 97.9162 277 99C249.143 101.248 236.576 109.14 217.5 130.5C205.256 147.359 201.76 158.108 200 179Z"/>
<path d="M278.5 412L223.5 356L167.5 412L223.5 467L278.5 412Z"/>
<path d="M244.5 270.5C238.833 253.492 233.811 246.247 223.5 235L169 289.5L110.5 231.5L167 175.5L112.5 122L0 235L103.5 339C116.215 351.481 123.505 357.059 137 362.5C155.281 368.657 165.561 369.555 184 365.5C197.065 364.615 219.21 348.94 221 347C222.79 345.06 238.413 331.55 244.5 312C247.002 295.793 246.496 286.707 244.5 270.5Z"/>
</mask>
<path d="M224 231.5L-151.366 561.803L199.138 960.127L575.979 586.621L224 231.5ZM200 179L-298.235 137.025L-302.816 191.404L-295.559 245.491L200 179ZM217.5 130.5L-155.43 -202.551L-172.238 -183.731L-187.066 -163.314L217.5 130.5ZM277 99L255.78 -400.549L246.269 -400.145L236.78 -399.38L277 99ZM337 123.5L692.94 -227.651L683.436 -237.284L673.426 -246.389L337 123.5ZM447 235L800.553 588.553L1151.72 237.386L802.94 -116.151L447 235ZM337 345L-16.5534 698.553L337 1052.11L690.553 698.553L337 345ZM281.5 289.5L-68.8248 -67.2528L-428.836 286.271L-72.0534 643.053L281.5 289.5ZM337 235L687.325 591.753L1038.15 247.253L699.576 -109.295L337 235ZM280.5 175.5L643.076 -168.795L291.329 -539.218L-71.4786 -179.621L280.5 175.5ZM223.5 356L580.224 5.64599L226.7 -354.306L-130.053 2.44661L223.5 356ZM278.5 412L632.053 765.553L982.436 415.171L635.224 61.646L278.5 412ZM223.5 467L-126.854 823.724L226.671 1170.94L577.053 820.553L223.5 467ZM167.5 412L-186.053 58.4466L-542.806 415.2L-182.854 768.724L167.5 412ZM223.5 235L592.066 -102.875L239.193 -487.8L-130.053 -118.553L223.5 235ZM244.5 270.5L740.752 209.395L734.649 159.831L718.864 112.452L244.5 270.5ZM244.5 312L721.894 460.642L732.964 425.089L738.646 388.289L244.5 312ZM184 365.5L150.197 -133.356L113.012 -130.836L76.611 -122.831L184 365.5ZM137 362.5L-49.9686 826.227L-36.4269 831.687L-22.5896 836.347L137 362.5ZM103.5 339L-250.904 691.7L-248.841 693.774L-246.753 695.823L103.5 339ZM0 235L-354.336 -117.769L-705.477 234.932L-354.404 587.7L0 235ZM112.5 122L462.765 -234.812L108.457 -582.619L-241.836 -230.769L112.5 122ZM167 175.5L518.979 530.621L879 173.786L517.265 -181.312L167 175.5ZM110.5 231.5L-241.479 -123.621L-599.716 231.446L-241.533 586.568L110.5 231.5ZM169 289.5L-183.033 644.568L170.514 995.093L522.553 643.053L169 289.5ZM599.366 -98.8031C606.344 -90.8733 635.963 -56.7441 661.011 -2.8044C686.365 51.795 693.52 97.3073 695.559 112.509L-295.559 245.491C-290.302 284.676 -278.728 347.823 -245.969 418.37C-213.516 488.256 -173.506 536.643 -151.366 561.803L599.366 -98.8031ZM698.235 220.975C697.562 228.968 694.096 269.469 676.102 320.246C657.253 373.436 632.654 409.735 622.066 424.314L-187.066 -163.314C-209.898 -131.875 -242.367 -81.7724 -266.465 -13.7712C-289.708 51.818 -295.801 108.14 -298.235 137.025L698.235 220.975ZM590.43 463.551C587.973 466.303 550.377 509.912 483.771 546.319C410.383 586.433 345.003 595.138 317.22 597.38L236.78 -399.38C181.14 -394.889 95.5476 -381.115 4.14261 -331.153C-80.4798 -284.898 -133.897 -226.663 -155.43 -202.551L590.43 463.551ZM298.22 598.55C265.708 599.931 195.987 598.434 115.529 564.772C44.9317 535.235 2.90084 495.505 0.574497 493.389L673.426 -246.389C649.612 -268.048 590.339 -320.57 501.492 -357.742C402.784 -399.04 313.807 -403.014 255.78 -400.549L298.22 598.55ZM-18.9395 474.651L91.0605 586.151L802.94 -116.151L692.94 -227.651L-18.9395 474.651ZM93.4466 -118.553L-16.5534 -8.55338L690.553 698.553L800.553 588.553L93.4466 -118.553ZM690.553 -8.55338L635.053 -64.0534L-72.0534 643.053L-16.5534 698.553L690.553 -8.55338ZM631.825 646.253L687.325 591.753L-13.3248 -121.753L-68.8248 -67.2528L631.825 646.253ZM699.576 -109.295L643.076 -168.795L-82.0758 519.795L-25.5758 579.295L699.576 -109.295ZM-71.4786 -179.621L-127.979 -123.621L575.979 586.621L632.479 530.621L-71.4786 -179.621ZM-133.224 706.354L-78.2241 762.354L635.224 61.646L580.224 5.64599L-133.224 706.354ZM-75.0534 58.4466L-130.053 113.447L577.053 820.553L632.053 765.553L-75.0534 58.4466ZM573.854 110.276L517.854 55.2759L-182.854 768.724L-126.854 823.724L573.854 110.276ZM521.053 765.553L577.053 709.553L-130.053 2.44661L-186.053 58.4466L521.053 765.553ZM-145.066 572.875C-147.745 569.952 -169.452 546.546 -191.34 510.592C-213.888 473.555 -225.346 442.106 -229.864 428.548L718.864 112.452C708.68 81.8858 691.877 38.3113 662.823 -9.41252C634.43 -56.052 605.056 -88.7047 592.066 -102.875L-145.066 572.875ZM-251.752 331.605C-251.242 335.749 -253.559 319.203 -253.788 296.256C-254.054 269.697 -251.581 248.247 -249.646 235.711L738.646 388.289C750.534 311.284 746.097 252.806 740.752 209.395L-251.752 331.605ZM-232.894 163.358C-210.689 92.0408 -176.1 44.5862 -158.059 22.2163C-147.713 9.38763 -138.483 -0.445164 -132.196 -6.84853C-129.057 -10.0453 -126.606 -12.4249 -126.222 -12.7986C-125.319 -13.676 -127.382 -11.6746 -128.773 -10.3093C-128.798 -10.2854 -137.045 -2.28294 -146.511 7.97834L588.511 686.022C582.957 692.043 578.464 696.607 576.517 698.573C574.263 700.85 572.495 702.589 571.757 703.313C570.795 704.258 569.257 705.751 570.77 704.281C572.375 702.72 576.387 698.814 581.338 693.773C591.248 683.68 605.099 668.884 620.336 649.991C648.158 615.494 693.602 551.509 721.894 460.642L-232.894 163.358ZM-146.511 7.97834C-124.022 -16.401 -103.909 -33.0272 -101.237 -35.2723C-94.1823 -41.2008 -88.4158 -45.699 -85.059 -48.2762C-78.0751 -53.6383 -72.4001 -57.6707 -68.6637 -60.2622C-61.0774 -65.5241 -52.8084 -70.8568 -43.4209 -76.281C-34.9383 -81.1823 -18.3776 -90.3335 4.52678 -99.7728C20.9276 -106.532 74.9564 -128.258 150.197 -133.356L217.803 864.356C299.576 858.815 361.273 834.798 385.556 824.79C416.343 812.102 441.002 798.745 456.878 789.572C473.658 779.876 488.616 770.206 501.266 761.431C507.534 757.084 515.335 751.502 523.923 744.907C528.083 741.714 534.521 736.679 542.103 730.308C545.303 727.619 565.798 710.643 588.511 686.022L-146.511 7.97834ZM76.611 -122.831C94.4473 -126.754 137.826 -134.866 194.388 -131.017C248.561 -127.33 287.616 -114.369 296.59 -111.347L-22.5896 836.347C4.66508 845.526 58.0006 862.015 126.494 866.676C197.376 871.499 255.114 861.809 291.389 853.831L76.611 -122.831ZM323.969 -101.227C346.465 -92.1567 377.397 -77.1295 410.195 -53.7492C424.563 -43.5069 435.573 -34.3005 442.721 -28.0033C449.415 -22.1058 453.644 -17.9299 453.753 -17.8228L-246.753 695.823C-208.295 733.573 -146.876 787.155 -49.9686 826.227L323.969 -101.227ZM457.904 -13.7005L354.404 -117.7L-354.404 587.7L-250.904 691.7L457.904 -13.7005ZM354.336 587.769L466.836 474.769L-241.836 -230.769L-354.336 -117.769L354.336 587.769ZM-237.765 478.812L-183.265 532.312L517.265 -181.312L462.765 -234.812L-237.765 478.812ZM-184.979 -179.621L-241.479 -123.621L462.479 586.621L518.979 530.621L-184.979 -179.621ZM-241.533 586.568L-183.033 644.568L521.033 -65.5675L462.533 -123.568L-241.533 586.568ZM522.553 643.053L577.053 588.553L-130.053 -118.553L-184.553 -64.0534L522.553 643.053Z" fill="url(#paint0_linear_39_104)" mask="url(#path-1-inside-1_39_104)"/>
<mask id="path-3-inside-2_39_104" fill="white">
<path d="M224 0L168.5 55.5L224 109L278 55.5L224 0Z"/>
</mask>
<path d="M168.5 55.5L-185.053 -298.053L-545.154 62.0467L-178.508 415.48L168.5 55.5ZM224 0L582.363 -348.677L228.876 -711.983L-129.553 -353.553L224 0ZM278 55.5L629.905 410.694L981.9 61.9581L636.363 -293.177L278 55.5ZM224 109L-123.008 468.98L228.787 808.098L575.905 464.194L224 109ZM522.053 409.053L577.553 353.553L-129.553 -353.553L-185.053 -298.053L522.053 409.053ZM-134.363 348.677L-80.363 404.177L636.363 -293.177L582.363 -348.677L-134.363 348.677ZM-73.9051 -299.694L-127.905 -246.194L575.905 464.194L629.905 410.694L-73.9051 -299.694ZM571.008 -250.98L515.508 -304.48L-178.508 415.48L-123.008 468.98L571.008 -250.98Z" fill="url(#paint1_linear_39_104)" mask="url(#path-3-inside-2_39_104)"/>
<defs>
<linearGradient id="paint0_linear_39_104" x1="223.5" y1="98.879" x2="223.5" y2="467" gradientUnits="userSpaceOnUse">
<stop stop-color="#0AD0FF"/>
<stop offset="1" stop-color="#322EFF"/>
</linearGradient>
<linearGradient id="paint1_linear_39_104" x1="223.25" y1="0" x2="223.25" y2="109" gradientUnits="userSpaceOnUse">
<stop stop-color="#0AD0FF"/>
<stop offset="1" stop-color="#322EFF"/>
</linearGradient>
</defs>
</svg>
