<svg width="1834" height="467" viewBox="0 0 1834 467" fill="none" xmlns="http://www.w3.org/2000/svg">
<mask id="path-1-inside-1_39_98" fill="white">
<path d="M200 179C203.218 202.983 208.839 214.27 224 231.5L280.5 175.5L337 235L281.5 289.5L337 345L447 235L337 123.5C315.513 103.957 302.515 97.9162 277 99C249.143 101.248 236.576 109.14 217.5 130.5C205.256 147.359 201.76 158.108 200 179Z"/>
<path d="M278.5 412L223.5 356L167.5 412L223.5 467L278.5 412Z"/>
<path d="M244.5 270.5C238.833 253.492 233.811 246.247 223.5 235L169 289.5L110.5 231.5L167 175.5L112.5 122L0 235L103.5 339C116.215 351.481 123.505 357.059 137 362.5C155.281 368.657 165.561 369.555 184 365.5C197.065 364.615 219.21 348.94 221 347C222.79 345.06 238.413 331.55 244.5 312C247.002 295.793 246.496 286.707 244.5 270.5Z"/>
</mask>
<path d="M224 231.5L-151.366 561.803L199.138 960.127L575.979 586.621L224 231.5ZM200 179L-298.235 137.025L-302.816 191.404L-295.559 245.491L200 179ZM217.5 130.5L-155.43 -202.551L-172.238 -183.731L-187.066 -163.314L217.5 130.5ZM277 99L255.78 -400.549L246.269 -400.145L236.78 -399.38L277 99ZM337 123.5L692.94 -227.651L683.436 -237.284L673.426 -246.389L337 123.5ZM447 235L800.553 588.553L1151.72 237.386L802.94 -116.151L447 235ZM337 345L-16.5534 698.553L337 1052.11L690.553 698.553L337 345ZM281.5 289.5L-68.8248 -67.2528L-428.836 286.271L-72.0534 643.053L281.5 289.5ZM337 235L687.325 591.753L1038.15 247.253L699.576 -109.295L337 235ZM280.5 175.5L643.076 -168.795L291.329 -539.218L-71.4786 -179.621L280.5 175.5ZM223.5 356L580.224 5.64599L226.7 -354.306L-130.053 2.44661L223.5 356ZM278.5 412L632.053 765.553L982.436 415.171L635.224 61.646L278.5 412ZM223.5 467L-126.854 823.724L226.671 1170.94L577.053 820.553L223.5 467ZM167.5 412L-186.053 58.4466L-542.806 415.2L-182.854 768.724L167.5 412ZM223.5 235L592.066 -102.875L239.193 -487.8L-130.053 -118.553L223.5 235ZM244.5 270.5L740.752 209.395L734.649 159.831L718.864 112.452L244.5 270.5ZM244.5 312L721.894 460.642L732.964 425.089L738.646 388.289L244.5 312ZM184 365.5L150.197 -133.356L113.012 -130.836L76.611 -122.831L184 365.5ZM137 362.5L-49.9686 826.227L-36.4269 831.687L-22.5896 836.347L137 362.5ZM103.5 339L-250.904 691.7L-248.841 693.774L-246.753 695.823L103.5 339ZM0 235L-354.336 -117.769L-705.477 234.932L-354.404 587.7L0 235ZM112.5 122L462.765 -234.812L108.457 -582.619L-241.836 -230.769L112.5 122ZM167 175.5L518.979 530.621L879 173.786L517.265 -181.312L167 175.5ZM110.5 231.5L-241.479 -123.621L-599.716 231.446L-241.533 586.568L110.5 231.5ZM169 289.5L-183.033 644.568L170.514 995.093L522.553 643.053L169 289.5ZM599.366 -98.8031C606.344 -90.8733 635.963 -56.7441 661.011 -2.8044C686.365 51.795 693.52 97.3073 695.559 112.509L-295.559 245.491C-290.302 284.676 -278.728 347.823 -245.969 418.37C-213.516 488.256 -173.506 536.643 -151.366 561.803L599.366 -98.8031ZM698.235 220.975C697.562 228.968 694.096 269.469 676.102 320.246C657.253 373.436 632.654 409.735 622.066 424.314L-187.066 -163.314C-209.898 -131.875 -242.367 -81.7724 -266.465 -13.7712C-289.708 51.818 -295.801 108.14 -298.235 137.025L698.235 220.975ZM590.43 463.551C587.973 466.303 550.377 509.912 483.771 546.319C410.383 586.433 345.003 595.138 317.22 597.38L236.78 -399.38C181.14 -394.889 95.5476 -381.115 4.14261 -331.153C-80.4798 -284.898 -133.897 -226.663 -155.43 -202.551L590.43 463.551ZM298.22 598.55C265.708 599.931 195.987 598.434 115.529 564.772C44.9317 535.235 2.90084 495.505 0.574497 493.389L673.426 -246.389C649.612 -268.048 590.339 -320.57 501.492 -357.742C402.784 -399.04 313.807 -403.014 255.78 -400.549L298.22 598.55ZM-18.9395 474.651L91.0605 586.151L802.94 -116.151L692.94 -227.651L-18.9395 474.651ZM93.4466 -118.553L-16.5534 -8.55338L690.553 698.553L800.553 588.553L93.4466 -118.553ZM690.553 -8.55338L635.053 -64.0534L-72.0534 643.053L-16.5534 698.553L690.553 -8.55338ZM631.825 646.253L687.325 591.753L-13.3248 -121.753L-68.8248 -67.2528L631.825 646.253ZM699.576 -109.295L643.076 -168.795L-82.0758 519.795L-25.5758 579.295L699.576 -109.295ZM-71.4786 -179.621L-127.979 -123.621L575.979 586.621L632.479 530.621L-71.4786 -179.621ZM-133.224 706.354L-78.2241 762.354L635.224 61.646L580.224 5.64599L-133.224 706.354ZM-75.0534 58.4466L-130.053 113.447L577.053 820.553L632.053 765.553L-75.0534 58.4466ZM573.854 110.276L517.854 55.2759L-182.854 768.724L-126.854 823.724L573.854 110.276ZM521.053 765.553L577.053 709.553L-130.053 2.44661L-186.053 58.4466L521.053 765.553ZM-145.066 572.875C-147.745 569.952 -169.452 546.546 -191.34 510.592C-213.888 473.555 -225.346 442.106 -229.864 428.548L718.864 112.452C708.68 81.8858 691.877 38.3113 662.823 -9.41252C634.43 -56.052 605.056 -88.7047 592.066 -102.875L-145.066 572.875ZM-251.752 331.605C-251.242 335.749 -253.559 319.203 -253.788 296.256C-254.054 269.697 -251.581 248.247 -249.646 235.711L738.646 388.289C750.534 311.284 746.097 252.806 740.752 209.395L-251.752 331.605ZM-232.894 163.358C-210.689 92.0408 -176.1 44.5862 -158.059 22.2163C-147.713 9.38763 -138.483 -0.445164 -132.196 -6.84853C-129.057 -10.0453 -126.606 -12.4249 -126.222 -12.7986C-125.319 -13.676 -127.382 -11.6746 -128.773 -10.3093C-128.798 -10.2854 -137.045 -2.28294 -146.511 7.97834L588.511 686.022C582.957 692.043 578.464 696.607 576.517 698.573C574.263 700.85 572.495 702.589 571.757 703.313C570.795 704.258 569.257 705.751 570.77 704.281C572.375 702.72 576.387 698.814 581.338 693.773C591.248 683.68 605.099 668.884 620.336 649.991C648.158 615.494 693.602 551.509 721.894 460.642L-232.894 163.358ZM-146.511 7.97834C-124.022 -16.401 -103.909 -33.0272 -101.237 -35.2723C-94.1823 -41.2008 -88.4158 -45.699 -85.059 -48.2762C-78.0751 -53.6383 -72.4001 -57.6707 -68.6637 -60.2622C-61.0774 -65.5241 -52.8084 -70.8568 -43.4209 -76.281C-34.9383 -81.1823 -18.3776 -90.3335 4.52678 -99.7728C20.9276 -106.532 74.9564 -128.258 150.197 -133.356L217.803 864.356C299.576 858.815 361.273 834.798 385.556 824.79C416.343 812.102 441.002 798.745 456.878 789.572C473.658 779.876 488.616 770.206 501.266 761.431C507.534 757.084 515.335 751.502 523.923 744.907C528.083 741.714 534.521 736.679 542.103 730.308C545.303 727.619 565.798 710.643 588.511 686.022L-146.511 7.97834ZM76.611 -122.831C94.4473 -126.754 137.826 -134.866 194.388 -131.017C248.561 -127.33 287.616 -114.369 296.59 -111.347L-22.5896 836.347C4.66508 845.526 58.0006 862.015 126.494 866.676C197.376 871.499 255.114 861.809 291.389 853.831L76.611 -122.831ZM323.969 -101.227C346.465 -92.1567 377.397 -77.1295 410.195 -53.7492C424.563 -43.5069 435.573 -34.3005 442.721 -28.0033C449.415 -22.1058 453.644 -17.9299 453.753 -17.8228L-246.753 695.823C-208.295 733.573 -146.876 787.155 -49.9686 826.227L323.969 -101.227ZM457.904 -13.7005L354.404 -117.7L-354.404 587.7L-250.904 691.7L457.904 -13.7005ZM354.336 587.769L466.836 474.769L-241.836 -230.769L-354.336 -117.769L354.336 587.769ZM-237.765 478.812L-183.265 532.312L517.265 -181.312L462.765 -234.812L-237.765 478.812ZM-184.979 -179.621L-241.479 -123.621L462.479 586.621L518.979 530.621L-184.979 -179.621ZM-241.533 586.568L-183.033 644.568L521.033 -65.5675L462.533 -123.568L-241.533 586.568ZM522.553 643.053L577.053 588.553L-130.053 -118.553L-184.553 -64.0534L522.553 643.053Z" fill="url(#paint0_linear_39_98)" mask="url(#path-1-inside-1_39_98)"/>
<mask id="path-3-inside-2_39_98" fill="white">
<path d="M224 0L168.5 55.5L224 109L278 55.5L224 0Z"/>
</mask>
<path d="M168.5 55.5L-185.053 -298.053L-545.154 62.0467L-178.508 415.48L168.5 55.5ZM224 0L582.363 -348.677L228.876 -711.983L-129.553 -353.553L224 0ZM278 55.5L629.905 410.694L981.9 61.9581L636.363 -293.177L278 55.5ZM224 109L-123.008 468.98L228.787 808.098L575.905 464.194L224 109ZM522.053 409.053L577.553 353.553L-129.553 -353.553L-185.053 -298.053L522.053 409.053ZM-134.363 348.677L-80.363 404.177L636.363 -293.177L582.363 -348.677L-134.363 348.677ZM-73.9051 -299.694L-127.905 -246.194L575.905 464.194L629.905 410.694L-73.9051 -299.694ZM571.008 -250.98L515.508 -304.48L-178.508 415.48L-123.008 468.98L571.008 -250.98Z" fill="url(#paint1_linear_39_98)" mask="url(#path-3-inside-2_39_98)"/>
<path d="M551.8 308V162H603.4L633.4 239H637.4L667.2 162H719.8V308H683V183.4L688.8 183.8L651.2 278.6H617.4L579.6 183.8L585.8 183.4V308H551.8ZM781.456 309.2V280.8H813.656C819.123 280.8 823.19 279.4 825.856 276.6C828.523 273.8 829.856 269.733 829.856 264.4C829.856 259.067 828.523 255.067 825.856 252.4C823.19 249.6 819.123 248.2 813.656 248.2H781.456V226.2H812.456C822.723 226.2 831.923 227.467 840.056 230C848.19 232.4 854.59 236.4 859.256 242C863.923 247.6 866.256 255.067 866.256 264.4V267.2C866.256 276 864.19 283.533 860.056 289.8C855.923 296.067 849.856 300.867 841.856 304.2C833.856 307.533 824.056 309.2 812.456 309.2H781.456ZM749.456 309.2V160.8H785.456V309.2H749.456ZM781.456 242.6V220.6H808.256C813.723 220.6 817.656 219.267 820.056 216.6C822.59 213.8 823.856 209.933 823.856 205C823.856 199.933 822.59 196.067 820.056 193.4C817.656 190.6 813.723 189.2 808.256 189.2H781.456V160.8H806.656C823.723 160.8 836.923 164.4 846.256 171.6C855.59 178.667 860.256 188.8 860.256 202V205C860.256 214.2 857.856 221.6 853.056 227.2C848.39 232.667 841.99 236.6 833.856 239C825.856 241.4 816.79 242.6 806.656 242.6H781.456ZM888.714 308V160.8H925.914V308H888.714ZM976.714 308L935.714 246H976.114L1019.51 308H976.714ZM916.514 263.2V234.6H951.514C955.914 234.6 959.714 233.733 962.914 232C966.114 230.267 968.581 227.8 970.314 224.6C972.181 221.4 973.114 217.667 973.114 213.4C973.114 209 972.181 205.2 970.314 202C968.581 198.8 966.114 196.333 962.914 194.6C959.714 192.867 955.914 192 951.514 192H916.514V160.8H949.314C961.981 160.8 972.914 162.733 982.114 166.6C991.314 170.333 998.381 175.933 1003.31 183.4C1008.25 190.733 1010.71 199.867 1010.71 210.8V214C1010.71 224.933 1008.18 234.067 1003.11 241.4C998.181 248.6 991.114 254.067 981.914 257.8C972.847 261.4 961.981 263.2 949.314 263.2H916.514ZM1037.16 308V162H1074.36V308H1037.16ZM1137.54 308.8V274H1161.54C1167.81 274 1173.41 273.133 1178.34 271.4C1183.41 269.533 1187.67 266.933 1191.14 263.6C1194.61 260.133 1197.27 256 1199.14 251.2C1201.01 246.267 1201.94 240.733 1201.94 234.6C1201.94 228.2 1201.01 222.6 1199.14 217.8C1197.27 212.867 1194.61 208.8 1191.14 205.6C1187.67 202.267 1183.41 199.8 1178.34 198.2C1173.41 196.467 1167.81 195.6 1161.54 195.6H1137.54V160.8H1159.94C1173.14 160.8 1184.67 162.667 1194.54 166.4C1204.54 170.133 1212.87 175.333 1219.54 182C1226.21 188.533 1231.21 196.133 1234.54 204.8C1237.87 213.467 1239.54 222.667 1239.54 232.4V236.8C1239.54 245.733 1237.87 254.533 1234.54 263.2C1231.21 271.733 1226.21 279.467 1219.54 286.4C1212.87 293.2 1204.54 298.667 1194.54 302.8C1184.67 306.8 1173.14 308.8 1159.94 308.8H1137.54ZM1104.34 308.8V160.8H1141.54V308.8H1104.34ZM1330.6 312C1316.87 312 1305.07 309.733 1295.2 305.2C1285.34 300.533 1277.27 294.467 1271 287C1264.74 279.533 1260.14 271.4 1257.2 262.6C1254.27 253.8 1252.8 245.2 1252.8 236.8V232.4C1252.8 223.333 1254.34 214.4 1257.4 205.6C1260.47 196.667 1265.07 188.6 1271.2 181.4C1277.47 174.2 1285.27 168.467 1294.6 164.2C1303.94 159.8 1314.87 157.6 1327.4 157.6C1340.87 157.6 1352.74 160.067 1363 165C1373.4 169.933 1381.74 176.8 1388 185.6C1394.27 194.267 1397.94 204.333 1399 215.8H1361.8C1361 211.4 1359.07 207.467 1356 204C1352.94 200.4 1348.94 197.6 1344 195.6C1339.2 193.467 1333.67 192.4 1327.4 192.4C1321.4 192.4 1316.07 193.467 1311.4 195.6C1306.87 197.6 1303 200.533 1299.8 204.4C1296.74 208.133 1294.4 212.6 1292.8 217.8C1291.2 223 1290.4 228.667 1290.4 234.8C1290.4 240.933 1291.27 246.667 1293 252C1294.74 257.2 1297.27 261.8 1300.6 265.8C1303.94 269.667 1308.14 272.667 1313.2 274.8C1318.27 276.933 1324.07 278 1330.6 278C1338.87 278 1346 276.267 1352 272.8C1358 269.333 1362.2 264.733 1364.6 259L1361.8 281V249.2H1395.8V279.2C1389.67 289.733 1380.94 297.867 1369.6 303.6C1358.4 309.2 1345.4 312 1330.6 312ZM1326.6 256.4V230.4H1407.8V256.4H1326.6ZM1426.6 308V162H1462.6V308H1426.6ZM1458.6 308V277.6H1520.2V308H1458.6ZM1458.6 249V218.6H1516V249H1458.6ZM1458.6 192.4V162H1519V192.4H1458.6ZM1581.78 308V276C1581.78 269.6 1582.85 264 1584.98 259.2C1587.25 254.267 1590.72 249.933 1595.38 246.2C1600.18 242.467 1606.38 239 1613.98 235.8L1636.18 226.4C1641.92 224 1646.05 221.133 1648.58 217.8C1651.25 214.467 1652.58 210.267 1652.58 205.2C1652.58 200.533 1650.98 196.6 1647.78 193.4C1644.72 190.067 1640.18 188.4 1634.18 188.4C1628.05 188.4 1623.45 190.133 1620.38 193.6C1617.32 196.933 1615.78 201.467 1615.78 207.2H1579.78C1579.78 197.6 1581.85 189.067 1585.98 181.6C1590.12 174.133 1596.18 168.267 1604.18 164C1612.32 159.733 1622.32 157.6 1634.18 157.6C1645.92 157.6 1655.78 159.667 1663.78 163.8C1671.92 167.8 1678.05 173.333 1682.18 180.4C1686.45 187.333 1688.58 195.2 1688.58 204V206.4C1688.58 217.733 1685.52 227.067 1679.38 234.4C1673.25 241.733 1663.38 248.333 1649.78 254.2L1627.58 263.6C1624.38 264.933 1621.98 266.4 1620.38 268C1618.92 269.6 1618.18 271.733 1618.18 274.4V281.6L1609.58 276H1688.18V308H1581.78ZM1765.73 312.4C1753.6 312.4 1743 310.733 1733.93 307.4C1725 303.933 1718.07 298.867 1713.13 292.2C1708.2 285.533 1705.73 277.333 1705.73 267.6C1705.73 261.333 1706.67 255.867 1708.53 251.2C1710.53 246.4 1713.27 242.333 1716.73 239C1720.33 235.667 1724.6 233.133 1729.53 231.4V228.6C1725.8 227 1722.4 224.867 1719.33 222.2C1716.4 219.533 1714.07 216.2 1712.33 212.2C1710.73 208.2 1709.93 203.467 1709.93 198C1709.93 188.8 1712.33 181.267 1717.13 175.4C1721.93 169.4 1728.53 164.933 1736.93 162C1745.47 159.067 1755.07 157.6 1765.73 157.6C1776.53 157.6 1786.13 159.067 1794.53 162C1802.93 164.933 1809.53 169.4 1814.33 175.4C1819.13 181.267 1821.53 188.8 1821.53 198C1821.53 203.467 1820.67 208.2 1818.93 212.2C1817.33 216.2 1815.07 219.533 1812.13 222.2C1809.2 224.867 1805.8 227 1801.93 228.6V231.4C1806.87 233.133 1811.13 235.667 1814.73 239C1818.33 242.333 1821.07 246.4 1822.93 251.2C1824.93 255.867 1825.93 261.333 1825.93 267.6C1825.93 277.333 1823.47 285.533 1818.53 292.2C1813.6 298.867 1806.6 303.933 1797.53 307.4C1788.6 310.733 1778 312.4 1765.73 312.4ZM1765.73 282C1770.53 282 1774.73 281.333 1778.33 280C1781.93 278.533 1784.73 276.4 1786.73 273.6C1788.87 270.667 1789.93 267.067 1789.93 262.8C1789.93 258.533 1788.93 255 1786.93 252.2C1784.93 249.4 1782.07 247.333 1778.33 246C1774.73 244.533 1770.53 243.8 1765.73 243.8C1761.07 243.8 1756.87 244.533 1753.13 246C1749.53 247.333 1746.73 249.4 1744.73 252.2C1742.73 255 1741.73 258.533 1741.73 262.8C1741.73 267.067 1742.73 270.667 1744.73 273.6C1746.73 276.4 1749.53 278.533 1753.13 280C1756.87 281.333 1761.07 282 1765.73 282ZM1765.73 216.6C1772 216.6 1776.87 215.333 1780.33 212.8C1783.8 210.267 1785.53 206.733 1785.53 202.2C1785.53 197.533 1783.8 194 1780.33 191.6C1776.87 189.2 1772 188 1765.73 188C1759.47 188 1754.6 189.267 1751.13 191.8C1747.67 194.2 1745.93 197.667 1745.93 202.2C1745.93 206.733 1747.67 210.267 1751.13 212.8C1754.73 215.333 1759.6 216.6 1765.73 216.6Z" fill="black"/>
<defs>
<linearGradient id="paint0_linear_39_98" x1="223.5" y1="98.879" x2="223.5" y2="467" gradientUnits="userSpaceOnUse">
<stop stop-color="#0AD0FF"/>
<stop offset="1" stop-color="#322EFF"/>
</linearGradient>
<linearGradient id="paint1_linear_39_98" x1="223.25" y1="0" x2="223.25" y2="109" gradientUnits="userSpaceOnUse">
<stop stop-color="#0AD0FF"/>
<stop offset="1" stop-color="#322EFF"/>
</linearGradient>
</defs>
</svg>
